<?xml version="1.0" standalone="no"?>
<!DOCTYPE svg PUBLIC "-//W3C//DTD SVG 20010904//EN"
 "http://www.w3.org/TR/2001/REC-SVG-20010904/DTD/svg10.dtd">
<svg version="1.0" xmlns="http://www.w3.org/2000/svg"
 width="700.000000pt" height="700.000000pt" viewBox="0 0 700.000000 700.000000"
 preserveAspectRatio="xMidYMid meet">
<metadata>
Created by potrace 1.14, written by Peter Selinger 2001-2017
</metadata>
<g transform="translate(0.000000,700.000000) scale(0.100000,-0.100000)"
fill="#000000" stroke="none">
<path d="M3278 6996 c-1 -2 -42 -6 -89 -10 -47 -4 -95 -8 -105 -10 -10 -2 -45
-7 -78 -11 -101 -12 -215 -35 -380 -76 -296 -75 -599 -199 -881 -362 -103 -60
-265 -165 -315 -204 -8 -6 -51 -40 -95 -74 -351 -273 -674 -652 -897 -1054
-49 -87 -148 -289 -148 -301 0 -2 -9 -23 -20 -47 -57 -123 -157 -435 -186
-582 -2 -11 -10 -54 -19 -95 -29 -147 -35 -194 -52 -370 -15 -163 -8 -592 12
-711 2 -13 6 -46 9 -74 9 -78 22 -152 51 -285 21 -96 91 -339 114 -395 5 -11
25 -65 46 -120 63 -166 249 -531 312 -610 4 -6 34 -49 65 -95 170 -255 433
-535 708 -755 92 -74 370 -265 386 -265 4 0 15 -6 23 -14 46 -40 413 -212 571
-268 83 -29 268 -87 293 -92 12 -2 60 -13 107 -24 109 -27 200 -44 299 -58 25
-3 57 -8 71 -10 163 -25 682 -25 842 1 13 2 46 7 73 10 71 10 87 13 115 18 14
3 43 8 65 12 325 59 741 212 1039 384 49 28 91 51 93 51 10 0 268 180 353 247
152 119 324 280 450 422 36 41 70 79 76 85 6 6 48 61 94 121 150 197 277 405
383 628 26 53 47 99 47 102 0 2 11 28 24 57 57 127 151 421 182 573 17 81 54
301 59 350 4 33 9 71 11 85 9 46 11 524 4 605 -15 153 -21 210 -25 225 -2 8
-7 35 -10 60 -17 129 -80 384 -136 552 -348 1037 -1165 1855 -2204 2206 -167
56 -419 119 -555 137 -19 3 -46 7 -60 10 -13 2 -52 7 -86 11 -33 3 -74 8 -90
10 -32 5 -540 14 -546 10z m311 -1213 c61 -46 62 -54 62 -377 l0 -296 864 0
c525 0 874 -4 889 -10 38 -14 85 -68 92 -106 13 -73 -17 -139 -79 -171 -24
-12 -61 -16 -144 -17 -62 0 -113 -4 -113 -8 0 -7 299 -684 361 -816 16 -35 29
-65 29 -67 0 -2 18 -43 41 -92 74 -160 92 -208 95 -248 3 -57 -28 -108 -85
-138 -89 -47 -283 -110 -381 -123 -25 -3 -67 -10 -95 -14 -66 -11 -264 -10
-343 1 -137 19 -250 47 -347 84 -38 14 -85 31 -103 38 -33 11 -101 77 -103
100 0 6 -2 23 -4 37 -1 14 5 48 15 75 15 44 141 350 190 460 49 112 290 695
290 702 0 5 -240 9 -532 9 l-533 -1 0 -1585 0 -1585 355 -1 c301 -1 360 -3
385 -16 38 -20 60 -45 78 -87 29 -68 -20 -171 -91 -191 -26 -8 -310 -10 -924
-8 -882 3 -887 3 -915 24 -75 56 -89 157 -29 222 49 55 51 55 458 56 l376 0 0
1586 0 1586 -543 -1 c-299 0 -546 -3 -549 -6 -6 -5 36 -105 111 -269 14 -30
40 -89 58 -130 18 -41 44 -100 58 -130 43 -94 267 -598 278 -627 31 -77 9
-159 -53 -199 -79 -49 -334 -127 -467 -142 -132 -14 -358 -8 -461 13 -14 3
-37 7 -51 10 -56 10 -206 57 -273 86 -155 66 -174 132 -91 314 8 16 107 253
221 525 114 272 212 509 220 526 l13 30 -110 0 c-133 -1 -159 5 -203 49 -69
69 -53 185 33 233 l39 22 885 0 886 0 0 288 c-1 343 4 361 94 402 45 20 104
13 146 -17z"/>
</g>
</svg>
